<svg width="200" height="200" viewBox="0 0 200 200" fill="none" xmlns="http://www.w3.org/2000/svg">
<rect width="200" height="200" fill="white"/>
<path d="M125.759 132.027C120.159 142.907 106.092 148.96 99.7587 150.627H125.759C130.759 151.627 145.959 155.427 155.359 152.627C164.759 149.827 178.959 145.227 178.959 122.827C178.959 104.907 162.825 98.1604 154.759 97.027L174.959 73.627V62.427H119.159V77.827H153.959L135.159 99.027V110.227H145.959C163.079 111.987 162.159 123.894 159.559 129.627C151.079 142.747 133.492 136.694 125.759 132.027Z" fill="#686968"/>
<path d="M91.5587 126.627C88.3587 128.227 84.3587 128.76 82.7587 128.827V77.027L91.5587 87.027V126.627Z" fill="#686968"/>
<path d="M105.159 118.227C103.079 120.627 97.0921 124.16 94.3587 125.627V108.627L99.7587 105.827L105.159 107.627V118.227Z" fill="#686968"/>
<path d="M79.5588 128.827C74.4388 128.827 71.0254 127.894 70.1588 127.427V89.027H71.5588V82.227H73.1588V75.227H74.5588L75.3588 63.227L75.9588 75.227H77.1588V82.227H78.5588V89.027H79.7588L79.5588 128.827Z" fill="#686968"/>
<path d="M67.1587 149.827C62.3587 149.027 57.3587 146.96 55.5587 146.027V101.227L61.7587 97.627L67.1587 101.227V149.827Z" fill="#686968"/>
<path d="M70.7587 131.227V150.227C98.9187 154.547 117.825 137.76 123.759 128.827L110.159 117.827C97.3587 133.827 78.5587 133.427 70.7587 131.227Z" fill="#EE731D"/>
<path d="M98.1588 52.227L92.9588 60.227C45.1588 43.227 32.7588 102.827 52.3588 118.427L51.9588 144.427C40.1188 137.707 32.8921 129.76 30.7588 126.627C25.2921 119.094 16.1988 98.467 23.5588 76.227C30.9188 53.987 50.2255 43.8937 58.9588 41.627C75.9188 36.507 89.6255 39.4937 94.3588 41.627L121.959 41.427C118.692 42.1604 111.079 43.947 106.759 45.227C102.439 46.507 99.2254 50.427 98.1588 52.227Z" fill="#EE731D"/>
<path d="M112.359 71.227L108.559 72.827C107.759 70.747 100.092 64.3603 96.3588 61.427C96.7588 61.027 98.7588 58.227 99.5588 56.827C100.199 55.707 102.225 53.1603 103.159 52.027C107.159 47.547 109.892 47.8937 110.759 48.627L119.359 55.827C116.799 58.547 113.625 67.227 112.359 71.227Z" fill="#EE731D"/>
</svg>
