<svg width="100" height="100" viewBox="0 0 100 100" fill="none" xmlns="http://www.w3.org/2000/svg">
<path d="M50 98.4375C76.7188 98.4375 98.4375 76.7188 98.4375 50C98.4375 23.2812 76.7188 1.5625 50 1.5625C23.2812 1.5625 1.5625 23.2812 1.5625 50C1.5625 76.7188 23.2812 98.4375 50 98.4375ZM12.5 69.2969L32.1875 69.1406C34.375 77.0313 38.0469 84.6875 43.0469 91.5625C29.6875 89.375 18.5156 80.8594 12.5 69.2969ZM37.1875 36.7188H61.7188C63.5156 45.3125 63.5156 54.1406 61.875 62.7344L37.1875 62.8906C35.3906 54.2187 35.3906 45.3125 37.1875 36.7188ZM49.4531 89.7656C44.5312 83.4375 40.9375 76.4844 38.75 69.1406L60.2344 68.9844C57.9687 76.3281 54.375 83.3594 49.4531 89.7656ZM55.7031 91.7969C60.8594 84.7656 64.5313 77.0312 66.7188 68.9062L87.7344 68.75C81.6406 81.0156 69.7656 89.8438 55.7031 91.7969ZM92.1875 50C92.1875 54.375 91.4844 58.5938 90.3125 62.5L68.2031 62.6562C69.7656 54.0625 69.6875 45.3125 68.0469 36.7188H90C91.4062 40.8594 92.1875 45.3906 92.1875 50ZM87.3438 30.4688H66.5625C64.2969 22.6562 60.7031 15.0781 55.7031 8.20312C69.5313 10.0781 81.1719 18.5938 87.3438 30.4688ZM60.0781 30.4688H38.8281C41.0938 23.2813 44.6094 16.4844 49.4531 10.2344C54.2969 16.4844 57.8125 23.2813 60.0781 30.4688ZM43.0469 8.4375C38.125 15.2344 34.5313 22.6562 32.3438 30.4688H12.6563C18.6719 18.9844 29.7656 10.625 43.0469 8.4375ZM30.8594 36.7188C29.2188 45.3906 29.2188 54.2187 30.7813 62.8906L9.92187 63.0469C8.51562 58.9062 7.8125 54.5313 7.8125 50C7.8125 45.3906 8.59375 40.8594 10 36.7188H30.8594Z" fill="white"/>
</svg>
