<svg width="100" height="100" viewBox="0 0 100 100" fill="none" xmlns="http://www.w3.org/2000/svg">
<path d="M65.9 97.8L50.2 87.9L34.5 97.8V31.5H65.9V97.8Z" fill="#FFBF4B"/>
<path d="M50.2 67.4C67.9836 67.4 82.4 52.9836 82.4 35.2C82.4 17.4164 67.9836 3 50.2 3C32.4164 3 18 17.4164 18 35.2C18 52.9836 32.4164 67.4 50.2 67.4Z" fill="#EDEDED"/>
<path d="M50.1999 60.5C64.1727 60.5 75.4999 49.1728 75.4999 35.2C75.4999 21.2272 64.1727 9.89999 50.1999 9.89999C36.2271 9.89999 24.8999 21.2272 24.8999 35.2C24.8999 49.1728 36.2271 60.5 50.1999 60.5Z" fill="#BCBCBC"/>
<path d="M51.3999 20.1L55.5999 28.5C55.7999 28.9 56.1999 29.2 56.5999 29.3L65.8999 30.7C66.9999 30.9 67.4999 32.2 66.6999 33L59.9999 39.6C59.6999 39.9 59.4999 40.4 59.5999 40.8L61.1999 50.1C61.3999 51.2 60.1999 52.1 59.1999 51.5L50.8999 47.1C50.4999 46.9 49.9999 46.9 49.5999 47.1L41.1999 51.5C40.1999 52 38.9999 51.2 39.1999 50.1L40.7999 40.8C40.8999 40.4 40.6999 39.9 40.3999 39.6L33.6999 33C32.8999 32.2 33.2999 30.8 34.4999 30.7L43.7999 29.3C44.1999 29.2 44.5999 29 44.7999 28.5L48.9999 20.1C49.4999 19.1 50.8999 19.1 51.3999 20.1Z" fill="white"/>
</svg>
